# xmcd CD database file generated by Grip 2.95
# 
# Track frame offsets:
#       150
#       27455
#       58695
#       76030
#       104380
#       133657
#       154090
#       179965
#       201322
#       224722
#       243427
#       256815
#       281160
#       292812
# 
# Disc length: 4115 seconds
# 
# Revision: 3
# Processed by: cddbd v1.4b42PL0 Copyright (c) Steve Scherf et al.
# Submitted via: Grip 2.95
# 
DISCID=d810110e
DTITLE="Philadelphia" Jerry Ricks - Deep In The Well
DYEAR=1900
DGENRE=
TTITLE0=James Aley Blues
TTITLE1=No Place For Me
TTITLE2=Down In Luck
TTITLE3=Empty Bottle Blues
TTITLE4=Change Your Ways
TTITLE5=Born With The Blues
TTITLE6=New Pallet On The Floor
TTITLE7=When A Man Gets In Trouble
TTITLE8=New Avalon
TTITLE9=Ain't Afraid Of These Blues
TTITLE10=Gary Davis Medley
TTITLE11=Troubles
TTITLE12=Troubled, Lord
TTITLE13=Swing Low Sweet Chariot
EXTD=
EXTT0=
EXTT1=
EXTT2=
EXTT3=
EXTT4=
EXTT5=
EXTT6=
EXTT7=
EXTT8=
EXTT9=
EXTT10=
EXTT11=
EXTT12=
EXTT13=
PLAYORDER=
